# xmcd CD database file
#
# Track frame offsets:
#	150
#	27280
#	58262
#	113534
#	160111
#	194915
#	213965
#	226492
#	242656
#	281431
#
# Disc length: 4380 seconds
#
# Revision: 4
# Processed by: cddbd v1.5.1PL0 Copyright (c) Steve Scherf et al.
# Submitted via: CDex 1.51
#
DISCID=8a111a0a
DTITLE=Various Artist - ロマンス―カラヤン
DYEAR=1900
DGENRE=Classical
TTITLE0=モーツァルト／ベルリン・フィルハーモニー管弦楽団/セレナード ト長調 K.525 アイネ・クライネ・ナハトムジークより第2楽章「ロマンツェ」
TTITLE1=マスネ／ベルリン・フィルハーモニー管弦楽団／アンネ=ゾフィー・ムター(ヴァイオリン)/歌劇『ダイス』より「瞑想曲」
TTITLE2=ドヴォルザーク／ベルリン・フィルハーモニー管弦楽団/交響曲 第9番 ホ短調 作品95『新世界より』より第2楽章「ラルゴ」
TTITLE3=ドビュッシー／ベルリン・フィルハーモニー管弦楽団／カール=ハインツ・ツェラー(フルート)/牧神の午後への前奏曲
TTITLE4=モーツァルト／ベルリン・フィルハーモニー管弦楽団／カール・ライスター(クラリネット)/クラリネット協奏曲 イ長調 K.622より第2楽章「アダージョ」
TTITLE5=オッフェンバック／フィルハーモニア管弦楽団/歌劇『ホフマン物語』より「舟歌」
TTITLE6=チャイコフスキー／フィルハーモニア管弦楽団/バレエ音楽『白鳥の湖』作品20より「情景」
TTITLE7=チャイコフスキー／フィルハーモニア管弦楽団/バレエ音楽『眠りの森の美女』作品66より「パノラマ」
TTITLE8=シベリウス／ベルリン・フィルハーモニー管弦楽団/『四つの伝説曲』作品22-2より 交響詩『トゥオネラの白鳥』
TTITLE9=J.シュトラウス?／ベルリン・フィルハーモニー管弦楽団/ワルツ『美しく青きドナウ』
EXTD=
EXTT0=
EXTT1=
EXTT2=
EXTT3=
EXTT4=
EXTT5=
EXTT6=
EXTT7=
EXTT8=
EXTT9=
PLAYORDER=
